{"title":"Doctor.Sleep.2002.DVDRip.SweSub.Xvid","uid":8371516,"size":733209148,"categoryP":"video","categoryS":"movies","magnet":"?xt=urn:btih:944de3bbe2f47a74fcc3635537f731c790690679&amp;dn=Doctor.Sleep.2002.DVDRip.SweSub.Xvid&amp;tr=udp%3A%2F%2Ftracker.openbittorrent.com%3A80&amp;tr=udp%3A%2F%2Fopen.demonii.com%3A1337&amp;tr=udp%3A%2F%2Ftracker.coppersurfer.tk%3A6969&amp;tr=udp%3A%2F%2Fexodus.desync.com%3A6969","seeders":3,"leechers":0,"uploader":"nordjok","files":-1,"time":1365931891,"description":"                Doctor Sleep (original title) \n                   AKA: Close Your Eyes\n \n                   Swedish Hardsub    \n &lt;a href=&quot;\nhttp://www.imdb.com/title/tt0286594/&quot; rel=&quot;nofollow&quot; target=&quot;_NEW&quot;&gt;\nhttp://www.imdb.com/title/tt0286594/&lt;/a&gt;                  \n\n\n\nGeneral\nComplete name                       : Doctor.Sleep.2002.DVDRip.SweSub.Xvid.avi\nFormat                              : AVI\nFormat/Info                         : Audio Video Interleave\nFile size                           : 699 MiB\nDuration                            : 1h 38mn\n\nVideo\nID                                  : 0\nFormat                              : MPEG-4 Visual\nFormat profile                      : Advanced Simple@L5\nFormat settings, BVOP               : 2\nFormat settings, QPel               : No\nFormat settings, GMC                : No warppoints\nFormat settings, Matrix             : Default (H.263)\nMuxing mode                         : Packed bitstream\nCodec ID                            : XVID\nCodec ID/Hint                       : XviD\nDuration                            : 1h 38mn\nBit rate                            : 846 Kbps\nWidth                               : 720 pixels\nHeight                              : 304 pixels\nDisplay aspect ratio                : 2.35:1\nFrame rate                          : 25.000 fps\nColor space                         : YUV\nChroma subsampling                  : 4:2:0\nBit depth                           : 8 bits\nScan type                           : Progressive\nCompression mode                    : Lossy\nBits/(Pixel*Frame)                  : 0.155\nStream size                         : 599 MiB (86%)\nWriting library                     : XviD 73\n\nAudio\nID                                  : 1\nFormat                              : MPEG Audio\nFormat version                      : Version 1\nFormat profile                      : Layer 3\nMode                                : Joint stereo\nCodec ID                            : 55\nCodec ID/Hint                       : MP3\nDuration                            : 1h 38mn\nBit rate mode                       : Variable\nBit rate                            : 128 Kbps\nChannel(s)                          : 2 channels\nSampling rate                       : 48.0 KHz\nCompression mode                    : Lossy\nStream size                         : 91.3 MiB (13%)\nAlignment                           : Aligned on interleaves\nInterleave, duration                : 24 ms (0.60 video frame)\nInterleave, preload duration        : 488 ms\nWriting library                     : LAME3.90.\nEncoding settings                   : -m j -V 4 -q 2 -lowpass 17.6 --abr 128\n\n","torrent":{"xt":"urn:btih:944de3bbe2f47a74fcc3635537f731c790690679","amp;dn":"Doctor.Sleep.2002.DVDRip.SweSub.Xvid","amp;tr":["udp%3A%2F%2Ftracker.openbittorrent.com%3A80","udp%3A%2F%2Fopen.demonii.com%3A1337","udp%3A%2F%2Ftracker.coppersurfer.tk%3A6969","udp%3A%2F%2Fexodus.desync.com%3A6969"],"infoHash":"944de3bbe2f47a74fcc3635537f731c790690679","infoHashBuffer":{"type":"Buffer","data":[148,77,227,187,226,244,122,116,252,195,99,85,55,247,49,199,144,105,6,121]},"announce":[],"urlList":[]}}